<?xml version="1.0" encoding="UTF-8" standalone="no"?>
<!-- Created with Inkscape (http://www.inkscape.org/) -->

<svg
   width="200pt"
   height="100pt"
   version="1.1"
   viewBox="0 0 70.556 35.278"
   id="svg6"
   sodipodi:docname="litmus.svg"
   inkscape:version="1.1.2 (b8e25be8, 2022-02-05)"
   xmlns:inkscape="http://www.inkscape.org/namespaces/inkscape"
   xmlns:sodipodi="http://sodipodi.sourceforge.net/DTD/sodipodi-0.dtd"
   xmlns="http://www.w3.org/2000/svg"
   xmlns:svg="http://www.w3.org/2000/svg">
  <defs
     id="defs10" />
  <sodipodi:namedview
     id="namedview8"
     pagecolor="#ffffff"
     bordercolor="#666666"
     borderopacity="1.0"
     inkscape:pageshadow="2"
     inkscape:pageopacity="0.0"
     inkscape:pagecheckerboard="0"
     inkscape:document-units="pt"
     showgrid="false"
     inkscape:zoom="4.06125"
     inkscape:cx="84.8261"
     inkscape:cy="69.559865"
     inkscape:window-width="1296"
     inkscape:window-height="1081"
     inkscape:window-x="1637"
     inkscape:window-y="78"
     inkscape:window-maximized="0"
     inkscape:current-layer="svg6" />
  <g
     aria-label="litmus"
     id="text4"
     style="font-size:30.207px;line-height:1.25;font-family:Caveat;stroke-width:0.62932;fill:#00de64;fill-opacity:1">
    <path
       d="m 7.4491724,26.294402 q -0.573933,0.151035 -0.9968311,-0.271864 -0.422898,-0.453105 -0.573933,-1.329108 -0.120828,-0.876003 0.120828,-1.993662 0.151035,-0.362484 0.241656,-0.694761 0.090621,-0.362484 0.090621,-0.573933 0.060414,-0.30207 0.241656,-0.876003 0.1812421,-0.60414 0.3926911,-1.238487 0.211449,-0.634347 0.392691,-1.117659 0.211449,-0.513519 0.271863,-0.634347 0.120828,0 0.211449,-0.211449 0.090621,-0.211449 0.090621,-0.422898 0,-0.241656 0.090621,-0.543726 0.120828,-0.30207 0.241656,-0.422898 0,-0.151035 0.060414,-0.332277 0.090621,-0.211449 0.090621,-0.332277 0,-0.120828 0.060414,-0.241656 0.090621,-0.120828 0.090621,-0.241656 0.211449,-0.392691 0.543726,-1.238487 0.362484,-0.876003 0.755175,-1.933248 0.4228976,-1.057245 0.7853816,-2.0842829 0.362484,-1.027038 0.573933,-1.721799 0.241656,-0.7249681 0.241656,-0.8760031 0,-0.241656 0.151035,-0.422898 0.181242,-0.181242 0.422898,-0.181242 0.09062,-0.090621 0.332277,-0.120828 0.271863,-0.060414 0.392691,-0.060414 0,0 0.120829,0.120828 0.120828,0.120828 0.362484,0.362484 0.241656,0.211449 0.392691,0.483312 0.181242,0.271863 0.181242,0.6343471 0,0.392691 -0.09062,0.755175 -0.09062,0.332277 -0.362484,0.936417 -0.271863,0.6041399 -0.845797,1.8124199 -0.241656,0.60414 -0.513519,1.147866 -0.271863,0.513519 -0.271863,0.634347 0,0.120828 -0.120828,0.362484 -0.09062,0.241656 -0.211449,0.60414 -0.120828,0.241656 -0.332277,0.724968 -0.211449,0.453105 -0.453105,0.996831 -0.211449,0.513519 -0.362484,0.90621 -0.151035,0.362484 -0.151035,0.422898 0,0.120828 -0.03021,0.241656 0,0.120828 -0.1208276,0.241656 -0.120828,0 -0.151035,0.181242 0,0.151035 0,0.151035 0,0.30207 -0.483312,1.600971 -0.483312,1.661385 -0.90621,3.050907 -0.392691,1.389522 -0.392691,2.235318 0,0.724968 -0.181242,1.057245 -0.151035,0.332278 -0.392691,0.453106 z"
       style="font-weight:600;fill:#00de64;fill-opacity:1"
       id="path12" />
    <path
       d="m 11.792373,25.418398 q -0.241656,-0.241656 -0.362484,-0.664554 -0.09062,-0.453105 -0.06041,-0.876003 0.03021,-0.453105 0.151035,-0.694761 0,-0.241656 0.06041,-0.362484 0.09062,-0.151035 0.06041,-0.271863 -0.03021,-0.120828 0.06041,-0.422898 0.09062,-0.30207 0.181242,-0.573933 0.211449,-0.483312 0.453105,-1.20828 0.271863,-0.755175 0.513519,-1.51035 0.271863,-0.755175 0.422898,-1.298901 0.181242,-0.573933 0.211449,-0.694761 0,-0.362484 0.483312,-0.392691 0.362484,-0.120828 0.755175,0.211449 0.422898,0.30207 0.724968,0.785382 0.241656,0.241656 0.181242,0.664554 -0.06041,0.422898 -0.392691,1.147866 -0.120828,0.241656 -0.30207,0.785382 -0.151035,0.513519 -0.211449,0.876003 -0.120828,0.241656 -0.30207,0.694761 -0.151035,0.422898 -0.271863,0.815589 -0.06041,0.151035 -0.120828,0.513519 -0.06041,0.362484 -0.151035,0.755175 -0.09062,0.392691 -0.241656,0.634347 -0.271863,1.238487 -0.815589,1.449936 -0.513519,0.211449 -1.027038,-0.362484 z m 3.141528,-12.173421 q -0.271863,-0.211449 -0.422898,-0.513519 -0.151035,-0.332277 -0.181242,-0.60414 0,-0.271863 0.06041,-0.30207 0.271863,-0.241656 0.543726,-0.755175 0.271863,-0.543726 0.422898,-0.966624 0.03021,-0.09062 0.120828,-0.2416559 0.120828,-0.151035 0.241656,-0.181242 0.362484,-0.241656 0.90621,0 0.543726,0.241656 0.845796,0.7249679 0.271863,0.573933 0.151035,1.117659 -0.09062,0.513519 -0.634347,1.178073 -0.453105,0.60414 -1.057245,0.755175 -0.573933,0.120828 -0.996831,-0.211449 z"
       style="font-weight:600;fill:#00de64;fill-opacity:1"
       id="path14" />
    <path
       d="m 21.318433,26.173574 q -0.422898,-0.120829 -0.785382,-0.362485 -0.362484,-0.271863 -0.815589,-0.664554 -0.362484,-0.483312 -0.543726,-0.876003 -0.151035,-0.422898 -0.181242,-0.966624 -0.03021,-0.573933 -0.03021,-1.449936 0,-0.362484 0.120828,-1.027038 0.151035,-0.694761 0.30207,-1.449936 0.181242,-0.755175 0.332277,-1.329108 0.181242,-0.60414 0.211449,-0.785382 0.09062,-0.392691 -0.30207,-0.453105 -0.392691,-0.06041 -0.876003,-0.03021 -0.453105,0 -0.60414,-0.09062 -0.120828,-0.03021 -0.120828,-0.241656 0,-0.211449 0,-0.211449 0,-0.120828 -0.09062,-0.151035 -0.09062,-0.06041 -0.181242,-0.211449 -0.06041,-0.120828 0.120828,-0.422898 0.181242,-0.30207 0.513519,-0.362484 0.271863,-0.06041 0.785382,-0.09062 0.543726,-0.06041 1.057245,-0.211449 0.543726,-0.181242 0.845796,-0.543726 0.271863,-0.664554 0.60414,-1.449936 0.362484,-0.785382 0.664554,-1.389522 0.332277,-0.60414 0.453105,-0.755175 0.513519,-0.271863 0.936417,-0.211449 0.453105,0.03021 0.755175,0.513519 0.151035,0.211449 0.241656,0.332277 0.09062,0.09062 0.06041,0.30207 -0.03021,0.181242 -0.271863,0.664554 -0.211449,0.483312 -0.724968,1.449936 -0.151035,0.30207 -0.271863,0.543726 -0.120828,0.211449 -0.120828,0.211449 0.120828,0.03021 0.362484,0.03021 0.241656,0 0.60414,-0.03021 0.332277,-0.06041 0.755175,-0.09062 0.422898,-0.06041 0.724968,0 0.694762,0 1.027039,0.362484 0.332277,0.332277 0.362484,0.936417 0.06041,0.332277 -0.211449,0.513519 -0.241656,0.181242 -1.057245,0.181242 -0.271864,0 -0.81559,0.03021 -0.513519,0.03021 -1.087452,0.06041 -0.573933,0.03021 -0.996831,0.09062 -0.392691,0.03021 -0.392691,0.09062 -0.09062,0.06041 -0.30207,0.513519 -0.181242,0.422898 -0.392691,1.027038 -0.181242,0.60414 -0.332277,1.117659 -0.211449,1.027038 -0.30207,2.023869 -0.09062,0.966624 -0.03021,1.691592 0.09062,0.724968 0.362484,1.027038 0.271863,0.271863 0.90621,0.03021 0.634347,-0.241656 1.117659,-0.634347 0.543726,-0.453105 0.90621,-0.332277 0.392691,0.09062 0.453105,0.543726 0.09062,0.422898 -0.30207,0.996831 -0.362484,0.573933 -0.996831,0.966624 -0.60414,0.392691 -1.268694,0.543727 -0.664554,0.181242 -1.178073,0.03021 z"
       style="font-weight:600;fill:#00de64;fill-opacity:1"
       id="path16" />
    <path
       d="m 28.932958,24.935086 q -0.483312,-0.241656 -0.815589,-0.694761 -0.30207,-0.453105 -0.30207,-1.117659 0,-0.30207 0.120828,-1.027038 0.120828,-0.724968 0.332277,-1.631178 0.211449,-0.90621 0.422898,-1.691592 0.30207,-0.543726 0.422898,-1.087452 0.151035,-0.543726 0.151035,-0.664554 0.06041,-0.362484 0.181242,-0.90621 0.151035,-0.573933 0.30207,-1.027038 0.151035,-0.483312 0.211449,-0.543726 0.151035,-0.151035 0.453105,-0.181242 0.332277,-0.03021 0.634347,0.09062 0.332277,0.09062 0.453105,0.392691 0.332277,0.362484 0.362484,1.027038 0.03021,0.634347 -0.30207,1.600971 -0.271863,0.60414 -0.543726,1.419729 -0.271863,0.815589 -0.483312,1.51035 -0.181242,0.664554 -0.211449,0.90621 l -0.936417,0.03021 q 0.513519,-0.483312 0.966624,-0.996831 0.453105,-0.543726 0.664554,-0.845796 0.513519,-0.694761 0.876003,-1.147866 0.392691,-0.483312 0.996831,-1.147866 0.60414,-0.694761 1.268694,-0.936417 0.664554,-0.241656 0.996831,-0.241656 0.664554,0.120828 1.147866,0.694761 0.483312,0.543726 0.60414,1.631178 0,0.422898 -0.09062,0.996831 -0.06041,0.573933 -0.06041,0.573933 0,0 0.483312,-0.60414 0.513519,-0.634347 1.359315,-1.389522 0.573933,-0.422898 1.117659,-0.483312 0.543726,-0.09062 0.966624,0.362484 0.785382,0.422898 1.087452,1.419729 0.332277,0.996831 0.211449,2.325939 -0.09062,0.785382 0,1.238487 0.09062,0.422898 0.211449,0.785382 0.362484,0.392691 0.120828,0.815589 -0.241656,0.392691 -0.453105,0.392691 -0.30207,0 -0.845796,-0.120828 -0.513519,-0.120828 -0.936417,-0.422898 -0.422898,-0.30207 -0.422898,-0.815589 v -1.872834 q 0,-0.664554 -0.06041,-0.996831 -0.03021,-0.362484 -0.151035,-0.453105 -0.332277,-0.181242 -0.876003,0.30207 -0.513519,0.483312 -1.147866,1.359315 -0.60414,0.876003 -1.238487,1.903041 -0.573933,0.936417 -0.876003,1.117659 -0.271863,0.181242 -0.60414,-0.03021 -0.664554,-0.211449 -0.845796,-0.573933 -0.151035,-0.392691 -0.03021,-0.876003 0.151035,-0.513519 0.362484,-1.329108 0.241656,-0.845796 0.453105,-1.631178 0.211449,-0.815589 0.271863,-1.178073 -0.120828,-0.241656 -0.422898,-0.151035 -0.271863,0.06041 -0.573933,0.271863 -0.362484,0.241656 -0.815589,0.664554 -0.422898,0.392691 -0.966624,1.268694 -0.362484,0.573933 -0.815589,1.20828 -0.422898,0.634347 -0.785382,1.147866 -0.362484,0.513519 -0.60414,0.724968 -0.271863,0.573933 -0.453105,0.694761 -0.181242,0.09062 -0.543726,-0.06041 z"
       style="font-weight:600;fill:#00de64;fill-opacity:1"
       id="path18" />
    <path
       d="m 51.781722,26.173574 q -0.211449,0.120828 -0.573933,-0.09062 -0.332277,-0.211449 -0.664554,-0.634347 -0.211449,-0.362484 -0.30207,-0.755175 -0.09062,-0.392691 -0.09062,-1.147866 0.03021,-0.60414 0,-0.815589 -0.03021,-0.211449 -0.30207,0 -0.271863,0.211449 -0.996831,0.90621 -0.755175,0.755175 -1.449936,1.268694 -0.664554,0.483312 -1.087452,0.453105 -0.211449,0 -0.543726,-0.241656 -0.30207,-0.271863 -0.60414,-0.664554 -0.30207,-0.392691 -0.453105,-0.755175 -0.181242,-0.694761 -0.03021,-1.81242 0.181242,-1.117659 0.543726,-2.325939 0.362484,-1.20828 0.845796,-2.295732 0.483312,-1.087452 0.966624,-1.752006 0.483312,-0.664554 0.845796,-0.634347 0.422898,0.03021 0.724968,0.422898 0.332277,0.362484 0.543726,0.876003 0.120828,0.211449 0.09062,0.362484 0,0.151035 -0.241656,0.362484 -0.271863,0.362484 -0.634347,1.057245 -0.362484,0.694761 -0.724968,1.51035 -0.362484,0.785382 -0.634347,1.540557 -0.271863,0.724968 -0.392691,1.20828 -0.09062,0.453105 0.03021,0.453105 0.422898,0 0.845796,-0.271863 0.453105,-0.271863 0.996831,-0.785382 0.634347,-0.634347 1.117659,-1.298901 0.483312,-0.694761 0.996831,-1.540557 0.392691,-0.60414 0.815589,-1.329108 0.453105,-0.724968 0.573933,-1.027038 0.422898,-0.785382 0.634347,-1.147866 0.211449,-0.362484 0.513519,-0.453105 0.151035,0 0.362484,0 0.241656,0 0.241656,0 0.181242,0.03021 0.422898,0.271863 0.241656,0.120828 0.422898,0.30207 0.181242,0.181242 0.181242,0.332277 -0.120828,0.30207 -0.392691,0.90621 -0.241656,0.573933 -0.362484,0.845796 -0.573933,1.298901 -1.117659,2.567595 -0.513519,1.238487 -0.755175,2.537388 -0.06041,0.422898 -0.03021,0.996831 0.06041,0.543726 0.181242,0.785382 0.09062,0.181242 0.211449,0.422898 0.151035,0.211449 0.332277,0.362484 0.271863,0.181242 0,0.453105 -0.241656,0.241656 -0.60414,0.422898 -0.362484,0.151036 -0.453105,0.151036 z"
       style="font-weight:600;fill:#00de64;fill-opacity:1"
       id="path20" />
    <path
       d="M 57.374265,26.233988 Q 56.498262,25.871503 56.01495,25.448605 55.531638,24.9955 55.531638,24.663223 q 0.03021,-0.211449 0.151035,-0.332277 0.151035,-0.151035 0.634347,-0.120828 0.513519,0 1.600971,0.211449 0.332277,0 0.724968,-0.03021 0.422898,-0.06041 0.755175,-0.120828 0.362484,-0.09062 0.483312,-0.211449 0.151035,-0.03021 0.09062,-0.120828 -0.06041,-0.120828 -0.211449,-0.241656 -0.120828,-0.120828 -0.271863,-0.181242 -0.151035,-0.06041 -0.271863,-0.06041 -0.03021,-0.151035 -0.271863,-0.30207 -0.211449,-0.181242 -0.513519,-0.332277 -0.664554,-0.543726 -1.178073,-0.966624 -0.513519,-0.453105 -0.392691,-0.634347 0,-0.120828 0,-0.120828 0,-0.03021 0,-0.03021 -0.211449,0 -0.422898,-0.573933 -0.211449,-0.60414 -0.211449,-1.087452 0,-0.543726 0.241656,-1.117659 0.241656,-0.60414 0.634347,-1.147866 0.392691,-0.573933 0.815589,-0.996831 0.543726,-0.513519 1.238487,-1.057245 0.724968,-0.573933 1.51035,-0.996831 0.785382,-0.453105 1.570764,-0.664554 0.483312,-0.120828 0.996831,-0.120828 0.513519,0 0.785382,0.181242 0.271863,-0.06041 0.60414,0.181242 0.332277,0.241656 0.634347,0.60414 0.30207,0.362484 0.453105,0.694761 0,0.362484 -0.03021,0.876003 -0.03021,0.483312 -0.120828,0.876003 -0.06041,0.362484 -0.271863,0.362484 0,0 -0.09062,0.03021 -0.06041,0 -0.06041,0.151035 0,0.30207 -0.453105,0.694761 -0.573933,0.392691 -1.057245,0.573933 -0.483312,0.181242 -0.694761,-0.09062 -0.151035,-0.120828 -0.271863,-0.211449 -0.120828,-0.120828 -0.241656,-0.241656 0,0 -0.09062,-0.120828 -0.06041,-0.120828 -0.06041,-0.271863 0,-0.120828 0.09062,-0.211449 0.09062,-0.120828 0.09062,-0.120828 0.332277,-0.271863 0.543726,-0.60414 0.241656,-0.332277 0.362484,-0.634347 0.151035,-0.332277 0.151035,-0.483312 0,-0.181242 -0.09062,-0.211449 -0.06041,-0.03021 -0.30207,-0.03021 -0.241656,0.06041 -0.785382,0.332277 -0.513519,0.241656 -1.057245,0.573933 -0.543726,0.332277 -0.815589,0.573933 -0.120828,0.211449 -0.181242,0.271863 -0.03021,0.06041 -0.151035,0.06041 0,-0.120828 -0.181242,0.06041 -0.151035,0.181242 -0.392691,0.483312 -0.211449,0.30207 -0.453105,0.634347 -0.211449,0.332277 -0.332277,0.513519 -0.06041,0.211449 -0.151035,0.453105 -0.09062,0.241656 -0.06041,0.483312 -0.03021,0.332277 0.181242,0.573933 0.241656,0.211449 0.755175,0.634347 1.057245,0.785382 1.600971,1.268694 0.573933,0.453105 0.815589,0.755175 0.241656,0.271863 0.30207,0.543726 0.513519,0.936417 0.181242,1.570764 -0.332277,0.60414 -1.147866,0.966624 -0.30207,0.151036 -1.027038,0.271864 -0.724968,0.120828 -1.540557,0.09062 -0.785382,0 -1.298901,-0.181242 z"
       style="font-weight:600;fill:#00de64;fill-opacity:1"
       id="path22" />
  </g>
</svg>
